<?xml version="1.0" encoding="utf-8"?>
<!-- Generator: Adobe Illustrator 22.1.0, SVG Export Plug-In . SVG Version: 6.00 Build 0)  -->
<svg version="1.1" id="Layer_1" xmlns="http://www.w3.org/2000/svg" xmlns:xlink="http://www.w3.org/1999/xlink" x="0px" y="0px"
	 viewBox="0 0 318.5 339.1" style="enable-background:new 0 0 318.5 339.1;" xml:space="preserve">
<style type="text/css">
	.st0{fill:#FFFFFF;}
	.st1{fill:#4F2683;}
</style>
<g>
	<g>
		<path class="st0" d="M152,295.4c-0.8,0.9-1.8,1.4-3.1,1.4c-2.8,0-4.6-1.2-8.9-1.2c-7.4,0-13.2,4-13.2,11.4c0,15,23,11.8,23,22.6
			c0,4.9-3.6,7.2-8,7.2c-8.3,0-13.1-5.4-14.9-13.3h-2.1l2.8,15.1c0.9-1,2.1-1.4,3.2-1.4c2.4,0,5.4,1.8,10.8,1.8
			c8.6,0,15.1-4.8,15.1-12.9c0-16.3-23.4-12-23.4-22.5c0-3.4,2.4-5.8,6.7-5.8c6.8,0,10.7,4.8,12.3,10.6h2L152,295.4z M268.8,336v2.1
			h22.5V336h-6.7v-21.9c0-7.8,4-15.4,11.7-15.4c4.3,0,6.9,2.4,6.9,8.8V336h-6.7v2.1h21.9V336h-6.7v-28.4c0-8.4-4.1-12.1-12.4-12.1
			c-6.9,0-12,3.4-14.6,9.1h-0.2v-9.3c-1.1,0.9-2.7,2-6.4,2c-2.4,0-8.9,0-8.9,0v2.1h6.8V336H268.8z M186.6,330.9
			c-1.1,2.5-2.9,4.9-6,4.9c-3.2,0-4.5-2-4.5-7v-29.2h10.4v-2.1H176v-13.9h-1.8c-1.2,9-5.7,13.6-13.8,14.4v1.7l0,0h0h6.8v28.9
			c0,5.4,1.1,10.6,9.8,10.6c5.5,0,8.9-2.6,10.6-5.9l0.7-1.3L186.6,330.9z M266.6,301.5c0-3.3-2.5-5.9-7.1-5.9
			c-6.9,0-10.3,6.2-12,11.1h-0.1v-11.4c-1.4,1.1-2.7,2.2-6.4,2.2c-2.6,0-9.5,0-9.5,0v2.1h7.3V336h-7.3v2.1h22.9V336h-7v-18
			c0-9.6,4.7-20,10.7-20c0.5,0,0.8,0.1,1,0.2c-1,0.8-1.7,2.1-1.7,3.5c0,2.7,2,4.5,4.5,4.5C264.7,306.4,266.6,304.1,266.6,301.5z
			 M117.2,326.5c-2.4,5.6-6.4,10.1-13.6,10.1c-10.9,0-12.5-8.3-12.5-21v-0.7h28c0-11.3-6.3-19.1-18-19.1c-12.8,0-19.7,9.8-19.7,21.7
			c0,12.4,6.5,21.7,19.6,21.7c8.1,0,14.7-3.1,18.1-12L117.2,326.5z M91.1,310.3c0.5-6.3,2.8-12.4,9.4-12.4c7.1,0,8.6,5.5,8.8,11.3
			c0,0.5,0,2.4,0,2.9H91C91,311.7,91.1,310.9,91.1,310.3z M226.3,326.5c-2.4,5.6-6.4,10.1-13.6,10.1c-10.9,0-12.5-8.3-12.5-21v-0.7
			h28c0-11.3-6.3-19.1-18-19.1c-12.8,0-19.7,9.8-19.7,21.7c0,12.4,6.5,21.7,19.6,21.7c8.1,0,14.7-3.1,18.1-12L226.3,326.5z
			 M200.2,310.3c0.5-6.3,2.8-12.4,9.4-12.4c7.1,0,8.6,5.5,8.8,11.3c0,0.5,0,2.4,0,2.9h-18.2C200.2,311.7,200.2,310.9,200.2,310.3z
			 M44.8,295.2C41.1,305.9,29.6,339,29.6,339h-1.7L9,287.6l-3.1-8.2H0v-2.1h24.2v2.1h-7.6l2.3,6.9l13.2,36.4h0.2l11-31.6L39,279.4
			h-7.3v-2.1H58v2.1h-8.5l2.3,6.7l13.4,36.6h0.2l11.9-36.4l2-6.9h-7.6v-2.1h17.2v2.1h-6.1L80,287L63,339h-1.8L44.8,295.2z"/>
	</g>
	<g>
		<path class="st0" d="M270.8,109.4l0-94.3C246.4,6.5,208,0.9,164.7,0.9c-42.5,0-80.3,5.6-104.7,14.2l0,94.3
			c0,14.3-0.2,41,12.6,70.9c16,37.2,46.4,65,90.5,82.5l2.3,0.9l2.3-0.9c44.1-17.5,74.6-45.3,90.6-82.5
			C271,150.4,270.8,123,270.8,109.4z"/>
		<path class="st1" d="M165.4,158.4l64.1,52.3c-15.8,18.5-37.3,33.2-64.1,44c-26.8-10.8-48.2-25.5-64.1-44L165.4,158.4z M262.4,79.3
			l0-58.1C238,13.6,202.1,9.4,164.7,9.4c-37.1,0-71.8,4.3-96.3,11.9v58.1v0l97,79.1L262.4,79.3L262.4,79.3z M168.1,127.9l-5.9,0
			l-0.2-0.4c0,0-1.5-2.8-7.8-2.8H135v-31h1.4v29.6h17.8c5.9,0,8.2,2.2,8.9,3.2l4.6,0c0.7-1,2.8-3.2,8.7-3.2h17.8V93.8h1.4v30.9
			h-19.2c-6.4,0-7.7,2.7-7.7,2.8l-0.2,0.4L168.1,127.9z M164.6,122.6v1.5c-2.7-5-14.9-4.2-25.2-3.2V92.2c13-0.7,24.1-2.5,25.2,3.2
			v25.8c-3.3-3.9-13.2-3.5-23.6-2.5v0.8C151.2,118.5,162.1,118.1,164.6,122.6z M191.4,92.2v28.7c-10.4-1-22.6-1.9-25.2,3.2v-1.5
			c2.4-4.5,13.3-4.1,23.7-3.1v-0.8c-10.4-1-20.4-1.5-23.7,2.5V95.4C167.3,89.7,178.4,91.5,191.4,92.2z M248.8,79.3H82L71.3,68.1
			l21.3,7.1c-1.7-5.3-6.6-7.1-9.8-11.7c-1.9-2.7-2.5-5.3-2.3-8.1c0.6,1,1.6,2.3,3.2,3.4c1.5,1.1,3.6,1.9,6.4,2.5
			c5,1.1,7.6,2.7,9.8,4.7L89.1,46.6l18.8,12.1c-0.8-5.6-4.6-8.5-6.5-13.6c-1.1-3.1-1.1-5.8-0.2-8.4c0.3,1.1,1,2.7,2.2,4.1
			c1.2,1.4,3,2.7,5.6,4c4.8,2.4,6.9,4.6,8.5,7.3l-5.8-21.8l15.1,16.3c0.6-5.5-2.4-9.3-2.9-14.7c-0.3-3.3,0.4-5.9,1.9-8.3
			c0,1.1,0.3,2.8,1.2,4.6c0.8,1.7,2.2,3.4,4.4,5.3c4.2,3.6,5.6,6.4,6.5,9.5l-0.2-22.9l10.5,19.4c2.1-4.9-0.1-9.5,0.7-14.8
			c0.5-3.2,1.9-5.7,3.9-7.6c-0.3,1.1-0.4,2.8,0,4.7c0.4,1.8,1.3,3.8,3,6.2c3.2,4.6,3.9,7.7,4,11l0,0l5.6-22.5l5.4,21.5
			c3.2-4.4,2.4-9.5,4.5-14.5c1.3-3,3.2-4.8,5.7-6.1c-0.5,1-1.1,2.6-1.2,4.5c-0.1,1.9,0.3,4.1,1.3,6.8c1.9,5.1,1.8,8.3,1.1,11.4
			l10.9-20.1L193,42c4.2-3.3,4.5-8.6,7.8-12.9c2-2.6,4.4-3.8,7.1-4.5c-0.8,0.8-1.7,2.2-2.3,4.1c-0.5,1.8-0.7,4-0.4,6.9
			c0.6,5.6-0.3,8.6-1.8,11.5l0,0l15.7-17l-5.6,21.3c4.7-2.3,6.4-6.8,10.7-10.1c2.6-2,5.2-3,7.9-3c-0.9,0.6-2.2,1.7-3.2,3.4
			c-1,1.6-1.7,3.7-2.1,6.6c-0.8,5.5-2.4,8.2-4.6,10.7l0.1,0.1l19.5-12.5L231,65.8c5.2-0.7,7.8-4.9,12.7-7.1c3-1.3,5.8-1.7,8.5-0.9
			c-1.1,0.4-2.6,1.1-4,2.5c-1.3,1.3-2.5,3.2-3.7,5.8c-2.2,5.1-4.4,7.3-7.1,9.2l0.1,0.1l22-7.3L248.8,79.3z M142.9,110.7h0.6
			c1.7,0,1.9-0.2,1.9-1.3v-5c0-1.4-0.2-1.5-1.4-1.5h-1.1v-0.6c1.2,0,2.4,0.1,3.5,0.1c1.2,0,2.4,0,3.5-0.1v0.6h-1.1
			c-1.2,0-1.4,0.1-1.4,1.5v5c0,1.2,0.1,1.3,1.9,1.3h0.6v0.6c-1.1,0-2.2-0.1-3.5-0.1c-1,0-2.3,0-3.5,0.1V110.7z M155.2,105.2
			c-1.3-0.8-2.3-2-2.3-3.5c0-1.3,0.9-3.6,4-3.6c2.4,0,3.5,1.5,3.5,2.9c0,1.4-0.5,2.3-2.5,3.2c2,1,2.9,2.1,2.9,3.6
			c0,2.1-1.7,3.7-4.2,3.7c-2.3,0-3.8-1.6-3.8-3.2C152.7,106.5,154.1,105.6,155.2,105.2z M158.6,108.8c0-1.1-0.5-1.9-2.9-3.3
			c-1,0.5-1.6,1.6-1.6,2.6c0,1.8,1.3,2.7,2.3,2.7C158,110.8,158.6,109.7,158.6,108.8z M157.4,103.9c0.9-0.7,1.5-1.4,1.5-2.7
			c0-1.5-1-2.4-2.1-2.4c-1.3,0-2,1-2,2.1C154.8,102.1,155.6,102.9,157.4,103.9z M169.6,102.3h8.1l0.2,0.2l-6.6,12.9l-1-0.3l5.3-10.8
			h-5.4l-0.5,1.2h-0.6L169.6,102.3z M182.1,105.2c-1.3-0.8-2.3-2-2.3-3.5c0-1.3,0.9-3.6,4-3.6c2.4,0,3.5,1.5,3.5,2.9
			c0,1.4-0.5,2.3-2.5,3.2c2,1,2.9,2.1,2.9,3.6c0,2.1-1.7,3.7-4.2,3.7c-2.3,0-3.8-1.6-3.8-3.2C179.6,106.5,181,105.6,182.1,105.2z
			 M185.5,108.8c0-1.1-0.5-1.9-2.9-3.3c-1,0.5-1.6,1.6-1.6,2.6c0,1.8,1.3,2.7,2.3,2.7C184.9,110.8,185.5,109.7,185.5,108.8z
			 M184.3,103.9c0.9-0.7,1.5-1.4,1.5-2.7c0-1.5-1-2.4-2.1-2.4c-1.3,0-2,1-2,2.1C181.7,102.1,182.5,102.9,184.3,103.9z M196.7,157.7
			c0-13.8,11.1-24.9,24.8-24.9c13.7,0,24.8,11.2,24.7,25c0,13.8-11.1,24.9-24.8,24.9C207.8,182.7,196.7,171.2,196.7,157.7z
			 M232.9,140.7c0.2,0.2,0.2,0.4,0.3,0.7c0,0.6-0.5,1.1-1.1,1.1c-0.6,0-1.1-0.5-1.1-1.1c0-0.6,0.4-1,0.9-1.1l-1.3-2l-2.2,0.9
			c0.2,0.2,0.4,0.5,0.4,0.8c0,0.6-0.5,1.1-1.1,1.1c-0.6,0-1.1-0.5-1.1-1.1c0-0.5,0.3-0.9,0.7-1.1c-0.7-0.7-2.1-1.7-3.4-2.2
			c1,1.9,1.6,4.2,1.6,6.2c1.4-0.1,5.2,1.1,6.7,2.2c1.2-1.8,3-3.4,4.9-4.1C236.1,140.8,234.3,140.5,232.9,140.7z M225.9,145.7
			c-0.2,0-0.3,0-0.5-0.1c-0.2,0-0.2-0.1-0.3-0.2c0-0.1-0.2-0.2-0.6-0.3c-0.7,0-1,0.5-1,0.8c0,0.2,0,0.5,0.2,0.6
			c0.1,0.1,0.3,0.2,0.5,0.3c0.1,0,0.3,0,0.4-0.1l0,0c0.3-0.2,0.4-0.4,0.5-0.6c0-0.1,0.4-0.2,0.7-0.2c0.1,0,0.1,0,0.1-0.1
			C226,145.7,226,145.7,225.9,145.7z M219.2,146c-0.1,0.2-0.1,0.5-0.1,0.7c0,0,0.1,0.1,0.1,0.2c-0.1,0.4-0.1,0.9,0.1,1.5
			c0.1,0.4,0.4,0.5,1.1,0.5c0,0.2,0,0.3,0.1,0.5c0,0,0,0,0,0.1c-0.4,0.1-0.8,0.2-1.1,0.2c-1-0.1-1.7-0.6-1.5-1.7
			c0-0.2,0.1-0.3,0.2-0.5c0-0.1,0-0.2-0.1-0.2c-0.4-0.1-1.4,0.7-1.6,2c-0.1,1.2,0.5,1.8,1.4,1.9c0.5,0,1.2,0,2-0.3
			c1.3-0.5,2.7-0.7,3.6,0.2c-0.7-0.1-2.4,0-2.9,0.1c-0.8,0.1-1.1,1.7-0.3,1.7c0.6,0,3-0.1,3.1-0.1c-0.2,1-1.8,2.3-3.2,2.6
			c-0.9-0.4-3.5-0.3-4.7,0.1c-1.5-1.7-2.6-4.8-2.7-5.8c-0.1-0.5-0.1-1,0.2-1.5c0.5-0.9,1.4-0.8,1.9-1.5c0.2-0.4,0.1-0.9,0.2-1.3
			c0-0.2,0.4-0.8-0.1-1.1c-0.2,0.3-0.5,0.5-1,0.3c-0.3-0.1-0.6-0.2-0.9-0.1c-0.5,0.2-0.6,0.9-1,1.3c-0.2,0.2-0.5,0.1-0.4-0.2
			c0.1-0.6,0.4-1.1,0.3-1.8c-0.1-0.6-0.5-1.1-1.2-1.4c-0.3-0.1-0.6-0.4-0.9-0.5c-0.3-0.1-0.5,0-0.6,0.2c0.1,0.1,0.3,0.3,0.3,0.5
			c0,0.5-0.6,0.8-0.6,1.4c0,0.8,0.5,1.5,0.6,1.9c0,0.3-0.2,0.3-0.4,0.2c-0.4-0.2-1.1-0.6-1.6-0.6c-0.5,0-0.8,0.4-1.2,0.6
			c-0.2,0.1-1,0.1-0.8,0.4c0.4,0.1,0.7,0.4,0.9,0.8c0.1,0.3,0.2,0.5,0.5,0.7c0.5,0.3,1.5,0.3,1.9,0.3c0.3,0.1,0.7,0.2,0.8,0.9
			c0.1,0.4-0.1,0.9-0.3,1.3c-0.4,0.7-0.6,1.3-0.4,2c0.2-0.2,0.4-0.3,0.6-0.3c0.4,0,0.5,0.5,0.2,1.1c-0.3,0.6-0.5,1.3-0.2,2
			c0.1-0.3,0.3-0.4,0.6-0.4c0.4,0,0.6,0.4,0.3,1.1c-0.3,0.7-0.3,1.3,0,1.9c0.1-0.3,0.3-0.5,0.6-0.5c0.4,0,0.6,0.4,0.7,0.8
			c0.5,1.1,1.2,1.7,3.1,1.7c-0.6,1.2-6,0.4-8.2,0.2c-0.5-0.1-0.7-0.2-0.9-0.6c-0.3-0.9,0.5-1.6,0-2.5c-0.2-0.4-0.6-0.6-1-0.8
			c-0.2-0.1-0.7-0.7-1-0.5c0.1,0.3,0.1,0.6-0.3,1c-0.3,0.2-0.5,0.4-0.5,0.8c-0.1,0.6,0.4,1.2,0.6,1.7c0.1,0.4-0.1,0.5-0.4,0.3
			c-0.5-0.4-1.3-1.3-2.1-1.3c-0.5,0-0.7,0.3-1.1,0.5c-0.2,0.1-1,0.2-1,0.6c0.4,0.1,0.7,0.3,0.8,0.8c0.1,0.3,0.1,0.7,0.4,0.9
			c0.7,0.6,1.9,0.3,2.5,0.4c0.3,0.1,0.3,0.3,0.1,0.4c-0.6,0.3-1.4,0.6-1.7,1.1c-0.2,0.5-0.1,1-0.1,1.4c0,0.2-0.3,0.8,0.2,1
			c0.2-0.3,0.5-0.5,1.1-0.5c0.3,0,0.6,0.2,0.9,0c0.6-0.3,0.6-0.8,0.9-1.3c0.2-0.2,0.4-0.5,0.8-0.5c0.2,0,0.5,0.1,0.7,0.2
			c0.4,0.4,0.4,1.3,1.7,1.5c-0.1-0.1-0.1-0.3-0.1-0.5c0-0.3,0.2-0.5,0.4-0.5c0.3,0,0.5,0.1,0.8,0.6c0.3,0.6,0.7,0.8,1.3,0.8
			c-0.1-0.1-0.1-0.3-0.1-0.5c0-0.3,0.2-0.5,0.4-0.5c0.2,0,0.4,0.1,0.7,0.5c0.4,0.6,0.7,1,1.3,1c-0.2-0.4,0-0.9,0.5-0.9
			c0.5,0,1.8,0.4,2.7,0.8c0,2.4,1.5,5,3.9,6.6c-0.1-0.5,0.2-0.7,0.5-0.7c0.9,0,1.4,2.2,3.6,3.2c-0.1-0.4,0.1-0.7,0.4-0.7
			c0.3,0,0.6,0.2,0.8,0.3c1.9,1,3.9,2.3,4.9,3.2c2-0.6,5.2-2.5,7.3-4.7c-1.3-0.4-4.9-3.1-6.1-4.4c-2.2-2.3-2.9-4.7-2.9-6.5
			c0-0.6,0.1-1.2,0.2-1.6c0.7,0.4,1.6,0.3,2.2-0.2c-1-0.8-0.9-2.4-0.5-3c0.6,0.5,1.6,0.3,2.1-0.1c-0.8-0.5-1.2-1.8-0.8-2.9
			c0.4,0.5,1.5,0.5,2.1,0c-0.8-0.7-1.2-1.8-1-3.1c0.4,0.5,1.1,0.6,1.6,0.4c-0.3-0.7-0.4-1.8-0.5-2.6c-0.1-1.1-0.4-2.2-0.8-2.9
			c-1.1-1-4.6-2.4-6.7-2.4c-0.3,0-0.6,0-0.8,0.1c-0.6,0.1-1,0.3-1,0.5c-0.3,0.5-1.1,0.6-1.8,0.8C221.1,145.3,219.8,145.7,219.2,146z
			 M222.5,162.8h-0.2c-0.1,1.5-1,3.7-1.5,4.5l0.9-0.7l0.6,0.7l0.6-0.7l0.9,0.7C223.4,166.4,222.7,164.3,222.5,162.8z M239.1,169.9
			c0.2-0.3,0.4-0.7,0.4-0.7c-0.9-1.4-1.6-2.9-1.5-4.7c0.1-1.9,1.2-2.5,2-2.5c0.8,0,1.3,0.6,1.3,1.4c0.6-0.5,0.9-1.2,1-1.8
			c0-0.5-0.2-1.3-1.1-1.5c1.5-1.4,1.4-4.2-0.2-5.3c0.2,2-1.3,3.4-2.7,4.7c-1.8,1.8-2.1,3.8-1.7,5.8c-1.1-2.1-1.6-4.1-1.4-6
			c0.2-2.2,1.3-4.4,2.8-4.3c0.5,0,1.1,0.3,1.3,0.8c0.8-1.3,0.2-2.7-1-2.8c1.3-3-0.8-6-2.5-6.7c0.4,0.9,0.6,1.8,0.6,2.9
			c-0.2,2.9-2.7,5.2-3,9.5c-0.3,4.7,2.3,8.7,5.1,11.8C238.6,170.5,238.8,170.2,239.1,169.9z M228.1,169.2H228
			c-0.1,1.5-1,3.7-1.5,4.5l0.9-0.7l0.6,0.7l0.6-0.7l0.9,0.7C229.1,172.8,228.3,170.6,228.1,169.2z M223.8,150.3
			c0.1-0.3,0.2-0.7,0.2-0.9c0-0.2,0-0.4-0.2-0.6c-0.2-0.2-0.6-0.3-1.1-0.3c-0.5,0-1,0.1-1.2,0.2c0,0.1-0.1,0.3-0.2,0.5
			C222.2,149.3,223.2,149.5,223.8,150.3z M109.1,182.7c13.7,0,24.8-11.1,24.8-24.9c0-13.8-11.1-25-24.8-25
			c-13.7,0-24.8,11.1-24.8,24.9C84.3,171.5,95.4,182.7,109.1,182.7z M125.2,147.4c0.1,0.8-0.3,2-0.6,2.4c-0.3,0.1-1,0.1-1.5,0.2
			c-0.3,0-0.4,0.1-0.6,0.4c-0.6,1-1.2,2-1.8,3.3c-0.1,1.5-0.1,2.9-0.2,4.6c0,0.6,0,1.4-0.4,2.1c-0.5,0.7-1.1,1.2-1.6,1.5
			c-0.1,0.1-0.2,0.2,0.2,0.1c0.2-0.1,1.4-0.6,1.6-0.7c0.8-0.3,1.7-1.3,3,0c0.6,0.6,1.6,1.2,2.7,1.9c0.4,0.3,0.6,0.2,1.2,0.7
			c0.5,0.4,0.7,1.3,0.9,1.7c0.7,1.2,0.8,1.9,0.8,2.2c-0.4,0.2-2.1,0.3-2.7,0.1c-0.2-0.4-0.2-1-0.3-1.3c-0.2-0.6-0.4-0.9-0.7-1.1
			c-0.5-0.4-0.9-0.8-1.4-1c-1.2-0.7-1.4-0.9-2.3-0.4c-0.8,0.4-2.2,1.6-3.5,2.3c-1.1,0.5-4,0-4.9-0.8c0.3,0.8,1.9,1.7,3.2,2.3
			c-0.2,0.4-0.6,2.7-1.5,4.1c-0.1-0.3-0.3-0.6-0.5-0.6c-0.8,0-0.7,1.8-1.5,2.7c-0.1-0.3-0.2-0.6-0.6-0.6c-0.8,0-0.7,1.7-1.6,2.6
			c-0.1-0.4-0.3-0.6-0.7-0.6c-0.3,0-0.7,0.3-1,0.7c-1.1,1.1-1.6,1.8-2.6,2.9c-3.4-0.2-8.4-2.6-10.2-4.7c3.2-3.4,6.1-6.9,7.5-7.9
			c0.7-2,2.7-6.3,3.5-8.3c-0.1-0.2-0.2-0.4-0.3-0.6c-0.5,0.3-1.1,0.4-1.4,0.2c0.2-0.6,0.2-1.4,0-2.1c-0.4,0.2-0.9,0.3-1.2,0.2
			c0.2-0.7,0.3-1.4,0.1-2.1c0,0,0,0,0,0c-0.5,0.2-0.9,0.3-1.2,0.2c0.2-0.7,0.4-1.5,0.1-2.4c0-0.1-0.1-0.1-0.1-0.2
			c-0.6,0.3-2.8,0.7-3.3,0.5c-0.3-0.2,1.5-2.1,3.1-3.7c-1.5,0.6-3.4,1.3-6.3,1.9c-1.7,0.3-5.2,1-7.7,0.5c-0.4-0.1-0.3-0.6,0.1-0.6
			c1.3,0,3.1-0.1,4.4-0.4c0.3-0.1,0.9-0.4-0.1-0.6c-1.1-0.2-3-0.5-4-0.8c-0.3-0.1-0.2-0.5,0.1-0.5c1.2,0.1,2.6,0.3,3.6,0.4
			c0.6,0,0.9-0.1,0.4-0.4c-0.3-0.2-1.1-0.8-2-1.3c-0.2-0.1-0.2-0.4,0.1-0.4c0.7-0.1,3.3,1.5,5.1,2c0.4,0.1,0.7,0.2,1.1,0.1
			c0.4-0.1,0.4-0.3,0.4-0.4c-0.1-0.4-1.8-1.2-2.7-1.8c-0.3-0.2,0-0.5,0.4-0.4c0.9,0.3,3.1,1.4,4.1,1.5c0.8,0.1,1.1-0.1,1-0.3
			c-0.1-0.5-3.1-1.9-3.8-2.5c-0.2-0.1,0.1-0.4,0.3-0.3c1.5,0.2,4.5,2.2,5.8,2c0.1,0,0.3-0.1,0.3-0.3c-0.1-0.6-2.6-1.9-3.2-2.3
			c-0.3-0.2,0.1-0.4,0.5-0.3c0.9,0.2,2.3,0.9,3.2,1.3c0.4,0.2,0.7,0.3,1.1,0.2c0.5-0.1,1-0.7,0.8-1.8c-0.2-1.2-1.3-1.7-2.1-1.9
			c-0.9-0.2-0.2-0.6,0.5-0.5c1.4,0.3,2.5,0.9,2.7,2.2c0,0.2,0,0.5,0.1,0.8c0,0.7,0.5,0.4,0.9-0.1c0.8-1.1,0.9-2.2,0.8-2.9
			c-0.2-1.3-2.1-1.8-2.1-2.1c0-0.1,0.1-0.2,0.2-0.2c0.7-0.1,2.6,0.7,2.9,2.2c0.1,0.8,0,1.3-0.1,2.1c0,0.2,0.1,0.3,0.3,0
			c0.9-0.9,1.7-2.6,1.4-4.1c-0.3-1.6-1.9-2.2-2-2.4c0-0.1,0.1-0.2,0.2-0.2c0.7-0.1,2.5,1,2.8,2.7c0.3,1.6-0.4,4.8-5.3,7.4
			c2-0.5,2.6-0.4,2.8-0.1c2.3-0.6,3.8-1.1,4.5-1c0.7,1-0.7,1.4-0.8,2.2c0,0.7,1.6-0.5,1.4,0.7c-0.5,0.9-1.1,1-1.9,1.2
			c-0.4,0.2-1.8,1.3-2.6,1.9c2.3,1.6,4.7,4.1,4.9,4.2c0.1,0.4,0.7,1.4,1.4,2.9c0,0,0,0.1,0.1,0.1c0.3-1,0.9-2.7,1.1-3.5
			c0.2-0.7,0.1-1,0.4-1.4c0.2-0.4,0.9-1,1.4-1.8c0.5-0.8,1.4-2,1.7-2.4c0.5-0.8,1-0.6,1.9-0.8C123.7,147.5,124.8,147.4,125.2,147.4z
			 M106.8,147.6c0.1-0.1,0.3-0.3,0.5-0.4c0.4-0.2,0.9-0.3,1.3-0.4c0.2,0.3,0.1,0.7-0.2,1c-0.3,0.3-0.6,0.2-0.9,0
			c-0.2-0.1-0.4-0.1-0.5-0.1C106.8,147.7,106.7,147.6,106.8,147.6z M190.6,211.9c0.2-0.2,0.8-0.9,0.5-1c-0.4-0.2-1.1,0.6-2.2,0.6
			c-1.1,0-2.3-0.7-2.7-2.1c-0.4-1.7,0.3-2.9,1.5-3.9c0.4-0.4,1.4-0.9,1.7-1.4c-0.1-0.9,0.9-2.4,0.9-3.2c0-0.9,0.9-1.3,1.7-2.5
			c0.4-0.7,0.8-1.3,0.4-1.7c-1,0.8-3.8,3-5.5,2.4c-0.8-0.3-0.8-0.3-1.5,0.2c-0.5,0.4-1.3,0.6-2.2,0.4c-1.5-0.2-2.5-1.2-2.5-1.9
			c-0.9-0.1-1.9,1.7-2.4,2.3c-0.7,0.9-1.4,1.6-2.3,2.2c-0.7,0.6-1.9,1.8-2.8,1.2c-0.6-0.4-0.7-1.9-0.6-2.7c0.1-1.4,0.2-2.4,0.4-3.3
			c0.2-0.8,0.4-1.7,0.6-2.5c0.3-0.9,0.8-1.9,1.1-2.8c0.1-0.4,1.2-2.2,1.2-2.9c0-0.2-0.1-0.3-0.3-0.3c-0.4,0-1.1,0.5-1.7,0.8
			c-0.5,0.3-1,0.5-1.7,0.5c-0.8,0-1.4-0.3-1.9-1.2c-0.8-1.5-0.9-4.8-1.3-5.8c-0.8,0.4-1.5,0.2-2-0.5c-0.6-0.9-1-1.9-1.4-3
			c-0.2-0.4-0.5-1.6-0.6-2.3c-0.5,1-0.5,2-0.9,2.9c-0.2,0.5-0.3,1.2-0.4,1.8c-0.2,0.7-0.7,1.9-1.4,1.9c-0.4,0-0.6-0.4-0.7-0.6
			c-0.2,0-0.4,0.3-0.6,0.7c-0.3,0.7-0.3,1.4-0.5,2.1c-0.3,1.4-0.6,3.3-2.3,3.6c-0.7,0.1-1.7-0.5-2.3-0.8c-1.5-0.7-0.9,1.3-0.5,2.1
			c0.4,0.8,1.1,1.8,1.2,2.9c0.2,1.9,0.6,2.7,1,4.5c0.2,1.1,0.7,2.6,0.7,3.8c0,1.4-1,2.2-2.7,0.8c-0.5-0.4-1.5-1.7-2.4-2
			c-1.2-0.4-2.5-1.7-3-2.4c-0.3,0-0.9,0.4-1.1,0.7c-1.4,1.3-2.9,1.6-5.3,1.2c-1.2-0.2-1.7-0.5-2.7-1.1c-0.9-0.4-1.8-0.9-2.3-1.7
			c-0.1-0.2-0.3-0.7-0.6-0.6c-0.4,0.1-0.4,0.8-0.4,1.1c0,0.9,0.3,1.8,0.7,2.6c0.5,0.9,1.3,1.2,1.9,1.9c0.6,0.6,0.3,1.5-0.7,1.1
			c0,0.7,0.8,0.8,1.3,1.2c0.5,0.4,0.8,0.9,1,1.5c0.4,0.7,1.4,1.3,1.4,2.2c0,0.7-0.2,1.1-0.8,1.4c-0.7,0.4-1.5,0.3-2.3-0.1
			c-0.4,1.3,1.1,2.2,2.1,2.7c0.5,0.3,1.1,0.5,1.6,0.8c0.5,0.4,1.2,0.9,1.1,1.3c0.8,0.3,1.6,0,2.8,0.2c0.8,0.1,1.8,0.7,2.4,1.1
			c0.6,0.5,1,1.2,1,2c0,2.9-5,3.7-5,3.7c2,0.8,4.7,2.2,6.9,1.6c0.4-0.1,1.1-0.5,1.6-0.2c0.4,0.2,0.8,0.9,0.4,1.5
			c0.4,0.4,1.1,0.5,1.8,0.5c0.5,0,1.2-0.1,1.7-0.3c0.6-0.3,0.8-0.7,1.3-1c0.5-0.3,1-0.2,1.6-0.4c0.8-0.4,1.2-1.3,2.3-1.4l-0.4,17
			h3.2c-0.1-1.7-0.1-3.4-0.2-5.2c-0.1-2.9-0.2-5.9-0.3-8.8c0-1-0.1-1.9,0-2.9c0.9,0.3,1.3,1.4,2.1,1.9c0.9,0.6,3.2,1.9,4.2,0.9
			c-0.2-0.4-0.7-1.5,0-1.3c0.2,0,0.7,0.4,0.9,0.5c0.5,0.3,1,0.4,1.7,0.3c0.8-0.1,1.6-0.1,2.5,0.1c0.6,0.1,1,0.2,1.7,0
			c0.6-0.1,1-0.4,1.5-0.6c0.9-0.4,1.9-0.2,2.6-1c-0.7,0-2.1-0.5-2.4-0.7c-0.9-0.6-1.5-1.3-1.9-2.2c-0.4-0.9-0.7-2.1,0.6-2.4
			c0.7-0.1,0.6,0,1-0.5c0.4-0.5,1.2-1.2,1.9-1.5c0.8-0.3,3.2-0.1,3.5-1.2c-0.1-0.1-0.3-0.4-0.3-0.5c0-0.2,0.2-0.3,0.5-0.5
			c0.5-0.2,1-0.4,1.5-0.6C189.1,212.8,190,212.4,190.6,211.9z"/>
	</g>
</g>
</svg>
