<?xml version="1.0" encoding="utf-8"?>
<!-- Generator: Adobe Illustrator 23.0.2, SVG Export Plug-In . SVG Version: 6.00 Build 0)  -->
<svg version="1.1" id="Layer_1" xmlns="http://www.w3.org/2000/svg" xmlns:xlink="http://www.w3.org/1999/xlink" x="0px" y="0px"
	 viewBox="0 0 500 500" style="enable-background:new 0 0 500 500;" xml:space="preserve">
<style type="text/css">
	.st0{fill:#0780B1;}
	.st1{fill:#FFFFFF;}
</style>
<g>
	<circle class="st0" cx="250" cy="250" r="250"/>
	<g>
		<rect x="121.1" y="187.8" class="st1" width="58" height="182.3"/>
		<path class="st1" d="M212.5,187.8v182.3h58v-98.6c0,0-2.8-38.6,32.9-38.6c33.7,0,29,49.7,29,49.7v87.5h56.9V255.4
			c0,0,6.5-72.2-67-72.2c0,0-36.9-5.9-54.5,29.2v-24.6H212.5z"/>
		<path class="st1" d="M183.1,130.8c0,18.3-14.8,33.1-33.1,33.1c-18.3,0-33.1-14.8-33.1-33.1c0-18.3,14.8-33.1,33.1-33.1
			C168.3,97.7,183.1,112.5,183.1,130.8z"/>
	</g>
</g>
</svg>
