<?xml version="1.0" encoding="utf-8"?>
<!-- Generator: Adobe Illustrator 23.0.2, SVG Export Plug-In . SVG Version: 6.00 Build 0)  -->
<svg version="1.1" id="Layer_1" xmlns="http://www.w3.org/2000/svg" xmlns:xlink="http://www.w3.org/1999/xlink" x="0px" y="0px"
	 viewBox="0 0 500 500" style="enable-background:new 0 0 500 500;" xml:space="preserve">
<style type="text/css">
	.st0{fill:#EC343C;}
	.st1{fill:#FFFFFF;}
</style>
<g>
	<path class="st0" d="M479.9,249.7c0,127-103,230-230,230s-230-103-230-230s103-230,230-230S479.9,122.6,479.9,249.7z"/>
	<path class="st1" d="M241.3,145.5c0,0,18,9.8,8,43.4c0,0-2.4,5.4-0.2,7.1c2.2,1.8,4.5,1.1,9.9-1.1c5.5-2.1,56.9-24.1,78.8-1.3
		c0,0,12.8,12.6,2.5,37.6c0,0-3,5.9-1.1,7.6c1.9,1.8,3.6,2.5,5,2.9c1.5,0.4,40.5,11,45.6,43.5C395,317.8,364.3,360,308,382
		c-56.3,22-113.4,15.5-135.5,10c-22.1-5.5-134.7-35.8-96.2-129.6c0,0,18.1-49.4,77.1-92.9C212.2,126.1,239.8,144.4,241.3,145.5z"/>
	<path class="st0" d="M209.1,229.8c61.5-6.1,114.6,21.6,118.6,62c4,40.4-42.5,78.1-104,84.3c-61.5,6.1-114.6-21.6-118.6-62
		C101.1,273.7,147.6,235.9,209.1,229.8z"/>
	<g>
		<path class="st1" d="M420,235.9c-1.1,0-2.2-0.1-3.3-0.4c-7.8-1.8-12.6-9.6-10.8-17.3c1.3-5.6,4.3-22.5,2.6-32.4
			c-3.2-18.9-13.2-34.8-29.5-47.2c-22.3-16.9-53.6-10.5-53.9-10.5c-7.8,1.7-15.4-3.2-17.1-11c-1.7-7.8,3.3-15.5,11.1-17.2
			c1.8-0.4,44.5-9.3,77.5,15.7c22.4,16.9,36,38.9,40.5,65.3c3,17.5-2.4,41.2-3,43.9C432.5,231.4,426.5,235.9,420,235.9z"/>
		<path class="st1" d="M373.4,219.8c-1.2,0-2.4-0.2-3.6-0.6c-6.4-2-9.9-8.8-7.9-15.1c0.9-2.9,1.9-8.3,1.5-10.8l0-0.1
			c-0.7-3.8-1.7-10.2-10.2-16.6c-7.7-5.8-18.5-3.7-18.6-3.7c-6.5,1.5-13-2.6-14.5-9.1c-1.5-6.5,2.6-13,9.1-14.5
			c2.2-0.5,22.1-4.5,38.6,8c16.1,12.2,18.5,26.4,19.4,31.8l0,0.1c1.6,9.1-1.6,20-2.3,22.1C383.3,216.5,378.5,219.8,373.4,219.8z"/>
	</g>
	
		<ellipse transform="matrix(0.9581 -0.2865 0.2865 0.9581 -80.1541 72.8023)" class="st1" cx="208.7" cy="310.3" rx="59.4" ry="50.4"/>
	<path class="st0" d="M183.3,303.6c10.7-4.3,22.5-0.3,26.2,9c3.7,9.3-1.9,20.3-12.7,24.6c-10.7,4.3-22.5,0.3-26.2-9
		C166.9,318.9,172.6,307.9,183.3,303.6z"/>
	<path class="st0" d="M216.2,294.6c3.6-2.5,8.3-2,10.5,1.1c2.2,3.1,1,7.7-2.6,10.2c-3.6,2.5-8.3,2-10.5-1.1
		C211.4,301.7,212.6,297.1,216.2,294.6z"/>
</g>
</svg>
