<?xml version="1.0" encoding="utf-8"?>
<!-- Generator: Adobe Illustrator 23.0.2, SVG Export Plug-In . SVG Version: 6.00 Build 0)  -->
<svg version="1.1" id="Layer_1" xmlns="http://www.w3.org/2000/svg" xmlns:xlink="http://www.w3.org/1999/xlink" x="0px" y="0px"
	 viewBox="0 0 500 500" style="enable-background:new 0 0 500 500;" xml:space="preserve">
<style type="text/css">
	.st0{fill:#B63591;}
	.st1{fill:#FFFFFF;}
</style>
<g>
	<path class="st0" d="M500,250c0,138.1-111.9,250-250,250C111.9,500,0,388.1,0,250C0,111.9,111.9,0,250,0C388.1,0,500,111.9,500,250
		z"/>
</g>
<g>
	<path class="st1" d="M370.9,399.3H129.1c-17.7,0-32.1-14.4-32.1-32.1V125.3c0-17.7,14.4-32.1,32.1-32.1h241.9
		c17.7,0,32.1,14.4,32.1,32.1v241.9C403.1,384.9,388.6,399.3,370.9,399.3z M129.1,125.3v241.9h241.9V125.3H129.1z"/>
	<path class="st1" d="M250,336.4c-49.7,0-90.2-40.5-90.2-90.2s40.5-90.2,90.2-90.2s90.2,40.5,90.2,90.2S299.7,336.4,250,336.4z
		 M250,188.2c-32,0-58.1,26-58.1,58.1s26,58.1,58.1,58.1s58.1-26,58.1-58.1S282,188.2,250,188.2z"/>
</g>
<circle class="st1" cx="336.4" cy="155.3" r="16.9"/>
</svg>
